<svg height="auto" viewBox="0 0 512 512" width="auto" xmlns="http://www.w3.org/2000/svg"><g id="Beauty_Eyelashes" data-name="Beauty Eyelashes"><g id="Flat"><g fill="#262626"><path d="m101.374 392.782a129.414 129.414 0 0 1 -14.258-.831 8 8 0 0 1 1.768-15.9c21.749 2.418 37.344-1.071 46.352-10.367 10.956-11.3 8.868-28.381 8.844-28.551a8 8 0 0 1 15.84-2.262c.143 1.008 3.338 24.892-13.194 41.948-10.291 10.616-25.51 15.963-45.352 15.963z"/><path d="m76.308 329.617q-13.584 0-30.5-4.8a8 8 0 0 1 4.374-15.39c19.506 5.542 34.965 5.56 44.7.051 7.289-4.123 8.961-10.039 9.028-10.289l-.034-6.778 15.601 3.589c-.29 8.176-3.2 19.427-16.043 27.021-7.434 4.396-16.505 6.596-27.126 6.596z"/><path d="m87.749 360.394a106.669 106.669 0 0 1 -25.689-3.508 8 8 0 0 1 3.88-15.522c19.536 4.885 34.639 3.785 43.681-3.177 10.079-7.763 10.379-20.982 10.379-21.115a8 8 0 0 1 16 .053c0 .848-.187 20.911-16.4 33.572-8.276 6.46-18.936 9.697-31.851 9.697z"/><path d="m120 416a8 8 0 0 1 0-16c17.757 0 30.817-4.64 38.817-13.792 11.754-13.444 9.286-32.912 9.259-33.107a8 8 0 0 1 15.844-2.232c.154 1.08 3.59 26.677-12.93 45.724-11.168 12.878-28.324 19.407-50.99 19.407z"/><path d="m158.523 427.474a90.337 90.337 0 0 1 -24.721-3.782 8 8 0 1 1 4.4-15.384c18.441 5.269 33.148 3.9 43.713-4.071 13.212-9.966 17.9-28.981 17.9-42.237a8 8 0 0 1 16 0c0 17.746-6.374 41.516-24.265 55.011-9.243 6.969-20.297 10.463-33.027 10.463z"/><path d="m189.753 445q-11.7 0-24.9-5.65c-.144-.061-.287-.127-.427-.2l-32-16a8 8 0 0 1 7.156-14.31l31.784 15.892c13.709 5.825 24.923 5.656 34.275-.511 19.776-13.04 26.174-48.9 26.174-64.226a8 8 0 0 1 16 0c0 15.46-6 59.535-33.366 77.583a43.991 43.991 0 0 1 -24.696 7.422z"/><path d="m208 448h-16a8 8 0 0 1 0-16h16c21.888 0 36.958-7.27 46.074-22.224 8.047-13.2 9.737-30 9.737-41.776a8 8 0 0 1 16 0c0 50.841-26.174 80-71.811 80z"/><path d="m248 448h-24a8 8 0 0 1 0-16h24c44.291 0 48-37.165 48-72a8 8 0 0 1 16 0c0 13.883 0 34.863-7.623 53.034-9.596 22.875-29.091 34.966-56.377 34.966z"/><path d="m280 448h-24a8 8 0 0 1 0-16h24c44.291 0 48-37.165 48-72a8 8 0 0 1 16 0c0 13.883 0 34.863-7.623 53.034-9.596 22.875-29.091 34.966-56.377 34.966z"/><path d="m304 448h-16a8 8 0 0 1 0-16h16c51.786 0 55.811-59.7 55.811-78a8 8 0 0 1 16 0c0 45.442-18.865 94-71.811 94z"/><path d="m336.189 440a8 8 0 0 1 0-16c51.787 0 55.811-61.233 55.811-80a8 8 0 0 1 16 0c0 46.409-18.864 96-71.811 96z"/><path d="m367.99 432a8 8 0 0 1 -.982-15.939c2.292-.306 56.992-8.423 56.992-80.061a8 8 0 0 1 16 0c0 44.631-19.142 68.356-35.2 80.4a82.469 82.469 0 0 1 -35.808 15.538 8.108 8.108 0 0 1 -1.002.062z"/></g><path d="m254.909 368c-53.453 0-89.858-18.38-111.192-33.509-31.717-22.491-93.367-88.708-94.078-89.64a8 8 0 0 1 12.719-9.706c.164.214 16.7 21.673 44.161 42.784 24.961 19.193 64.397 42.071 110.513 42.071 40.905 0 86.795-12.257 127.282-23.072 55.071-14.709 98.568-26.326 119.7-6.8a7.989 7.989 0 0 1 2.274 3.721l13.419 48a8 8 0 0 1 -13.134 8.029c-14.292-13.206-38.635-7.747-75.481.517-34.985 7.842-78.521 17.605-136.183 17.605z" fill="#424242"/><path d="m469.722 177.952a40.551 40.551 0 0 1 -7.13-.624l-.241-.047-271.779-57.281h-145.789c-35.32 0-41.978-19.713-42.8-31.484a8 8 0 0 1 7.281-8.525l181.647-15.96a7.958 7.958 0 0 1 2.1.092l299.312 53.035a24 24 0 0 1 19.438 27.858c-1.855 10.372-8.487 19.836-18.194 25.963a45.038 45.038 0 0 1 -23.845 6.973z" fill="#c97e67"/><circle cx="40" cy="96" fill="#e8beb3" r="8"/><circle cx="80" cy="96" fill="#e8beb3" r="8"/></g></g></svg>