<?xml version="1.0" encoding="iso-8859-1"?>
<!-- Generator: Adobe Illustrator 19.0.0, SVG Export Plug-In . SVG Version: 6.00 Build 0)  -->
<svg version="1.1" id="Capa_1" xmlns="http://www.w3.org/2000/svg" xmlns:xlink="http://www.w3.org/1999/xlink" x="0px" y="0px"
	 viewBox="0 0 512 512" style="enable-background:new 0 0 512 512;" xml:space="preserve">
<path style="fill:#FEF0B6;" d="M462,502H50c-22.091,0-40-17.909-40-40V50c0-22.091,17.909-40,40-40h412c22.091,0,40,17.909,40,40
	v412C502,484.091,484.091,502,462,502z"/>
<path d="M46.382,123.316l-0.418,0.13c-5.273,1.639-8.221,7.243-6.582,12.517c1.332,4.286,5.282,7.035,9.547,7.035
	c0.982,0,1.982-0.146,2.971-0.453l0.414-0.128c17.254-5.354,32.094-16.112,42.51-30.654c3.951,2.736,7.964,5.365,12.034,7.888
	c-5.177,16.765-17.591,30.331-34.114,36.886l-3.305,1.311c-5.134,2.036-7.646,7.849-5.609,12.982
	c1.557,3.924,5.319,6.316,9.299,6.316c1.227,0,2.474-0.227,3.684-0.707l3.306-1.311c20.812-8.257,36.798-24.779,44.448-45.37
	c4.436,2.322,8.929,4.522,13.477,6.601c-1.089,18.71-11.833,35.448-28.598,44.195l-0.636,0.332
	c-4.896,2.554-6.797,8.594-4.243,13.491c1.784,3.42,5.268,5.378,8.876,5.378c1.558,0,3.139-0.365,4.615-1.135l0.637-0.333
	c21.003-10.957,35.129-31.037,38.604-53.977c4.92,1.82,9.889,3.512,14.911,5.056c-0.501,17.263-7.135,33.694-18.844,46.467
	c-3.731,4.071-3.456,10.397,0.615,14.128c1.92,1.76,4.34,2.628,6.754,2.628c2.705,0,5.402-1.091,7.375-3.243
	c13.898-15.163,22.204-34.359,23.833-54.694c6.564,1.507,13.198,2.778,19.891,3.817c-1.314,16.702-6.395,32.956-14.916,47.456
	l-1.436,2.443c-2.799,4.762-1.207,10.89,3.555,13.688c1.592,0.935,3.336,1.38,5.057,1.38c3.43,0,6.769-1.765,8.631-4.935
	l1.437-2.443c9.922-16.885,15.89-35.783,17.541-55.217c4.743,0.399,9.51,0.682,14.298,0.847v64.017c0,5.523,4.478,10,10,10
	c5.522,0,10-4.477,10-10v-64.017c4.788-0.165,9.555-0.448,14.298-0.847c1.651,19.434,7.619,38.332,17.542,55.217l1.436,2.443
	c1.862,3.17,5.201,4.935,8.631,4.935c1.721,0,3.466-0.445,5.057-1.38c4.762-2.798,6.354-8.926,3.555-13.688l-1.435-2.442
	c-8.521-14.501-13.602-30.755-14.917-47.457c6.692-1.039,13.326-2.311,19.891-3.817c1.629,20.335,9.935,39.531,23.833,54.694
	c1.973,2.152,4.669,3.243,7.375,3.243c2.413,0,4.835-0.869,6.754-2.628c4.071-3.731,4.347-10.057,0.615-14.128
	c-11.708-12.773-18.343-29.204-18.844-46.467c5.021-1.544,9.991-3.235,14.911-5.056c3.475,22.94,17.601,43.02,38.605,53.978
	l0.636,0.332c1.478,0.771,3.058,1.135,4.615,1.135c3.607,0,7.092-1.958,8.876-5.378c2.554-4.897,0.653-10.937-4.243-13.491
	l-0.635-0.331c-16.767-8.748-27.51-25.486-28.599-44.196c4.548-2.079,9.042-4.279,13.477-6.601
	c7.65,20.591,23.637,37.113,44.449,45.37l3.305,1.311c1.21,0.479,2.457,0.707,3.684,0.707c3.979,0,7.742-2.392,9.299-6.316
	c2.036-5.134-0.476-10.946-5.609-12.982l-3.304-1.31c-16.523-6.555-28.937-20.121-34.114-36.887
	c4.07-2.523,8.083-5.151,12.034-7.888c10.415,14.542,25.255,25.3,42.506,30.652l0.418,0.13c0.988,0.307,1.987,0.453,2.971,0.453
	c4.264,0,8.215-2.749,9.547-7.035c1.639-5.274-1.309-10.878-6.582-12.517l-0.422-0.131c-13.185-4.091-24.51-12.348-32.406-23.514
	c8.164-6.548,16.028-13.564,23.535-21.071c3.905-3.905,3.905-10.237,0-14.142c-3.906-3.905-10.236-3.906-14.143,0
	c-41.945,41.945-95.525,68.026-153.462,75.24c-0.376,0.025-0.747,0.068-1.11,0.134C277.48,141.23,266.79,141.88,256,141.88
	s-21.48-0.65-32.029-1.919c-0.364-0.066-0.734-0.109-1.11-0.134c-57.937-7.214-111.517-33.295-153.462-75.24
	c-3.904-3.905-10.234-3.905-14.143,0c-3.905,3.905-3.905,10.237,0,14.142c7.507,7.507,15.372,14.523,23.535,21.071
	C70.895,110.966,59.571,119.223,46.382,123.316z"/>
<path d="M172.209,364.001c-0.501,17.263-7.135,33.694-18.844,46.467c-3.731,4.071-3.456,10.397,0.615,14.128
	c1.92,1.76,4.34,2.628,6.754,2.628c2.705,0,5.402-1.091,7.375-3.243c13.898-15.163,22.204-34.359,23.833-54.694
	c6.564,1.507,13.198,2.778,19.891,3.817c-1.314,16.702-6.395,32.956-14.916,47.456l-1.436,2.443
	c-2.799,4.762-1.207,10.89,3.555,13.688c1.592,0.935,3.336,1.38,5.057,1.38c3.43,0,6.769-1.765,8.631-4.935l1.437-2.443
	c9.922-16.885,15.89-35.783,17.541-55.217c4.743,0.399,9.51,0.682,14.298,0.847v64.017c0,5.523,4.478,10,10,10
	c5.522,0,10-4.477,10-10v-64.017c4.788-0.165,9.555-0.448,14.298-0.847c1.651,19.434,7.619,38.332,17.542,55.217l1.436,2.443
	c1.862,3.17,5.201,4.935,8.631,4.935c1.721,0,3.466-0.445,5.057-1.38c4.762-2.798,6.354-8.926,3.555-13.688l-1.435-2.442
	c-8.521-14.501-13.602-30.755-14.917-47.457c6.692-1.039,13.326-2.311,19.891-3.817c1.629,20.335,9.935,39.531,23.833,54.694
	c1.973,2.152,4.669,3.243,7.375,3.243c2.413,0,4.835-0.869,6.754-2.628c4.071-3.731,4.347-10.057,0.615-14.128
	c-11.708-12.773-18.343-29.204-18.844-46.467c5.021-1.544,9.991-3.235,14.911-5.056c3.475,22.939,17.602,43.02,38.609,53.981
	l0.636,0.331c1.477,0.769,3.055,1.132,4.61,1.132c3.609,0,7.096-1.96,8.878-5.383c2.551-4.898,0.648-10.938-4.25-13.488
	l-0.629-0.327c-16.767-8.748-27.511-25.486-28.6-44.196c4.548-2.079,9.042-4.279,13.477-6.601
	c7.65,20.591,23.637,37.113,44.449,45.37l3.305,1.311c1.21,0.479,2.457,0.707,3.684,0.707c3.979,0,7.742-2.392,9.299-6.316
	c2.036-5.134-0.476-10.946-5.609-12.982l-3.304-1.31c-16.523-6.555-28.937-20.121-34.114-36.887
	c4.07-2.523,8.083-5.151,12.034-7.888c10.416,14.542,25.255,25.3,42.506,30.652l0.418,0.13c0.988,0.307,1.987,0.453,2.971,0.453
	c4.264,0,8.215-2.749,9.547-7.035c1.639-5.274-1.309-10.878-6.582-12.517l-0.422-0.131c-13.185-4.091-24.509-12.348-32.406-23.514
	c8.164-6.548,16.028-13.564,23.535-21.071c3.905-3.905,3.905-10.237,0-14.142c-3.906-3.905-10.236-3.906-14.143,0
	c-41.945,41.945-95.525,68.026-153.462,75.24c-0.376,0.025-0.747,0.068-1.11,0.134c-10.549,1.268-21.239,1.919-32.029,1.919
	s-21.48-0.65-32.029-1.919c-0.364-0.066-0.734-0.109-1.11-0.134c-57.937-7.214-111.517-33.295-153.462-75.24
	c-3.904-3.905-10.234-3.905-14.143,0c-3.905,3.905-3.905,10.237,0,14.142c7.507,7.507,15.372,14.523,23.535,21.071
	c-7.897,11.166-19.222,19.423-32.41,23.515l-0.418,0.13c-5.273,1.639-8.221,7.243-6.582,12.517c1.332,4.286,5.282,7.035,9.547,7.035
	c0.982,0,1.982-0.146,2.971-0.453l0.414-0.128c17.254-5.353,32.095-16.112,42.51-30.654c3.951,2.736,7.964,5.365,12.034,7.888
	c-5.177,16.765-17.591,30.331-34.114,36.886l-3.305,1.311c-5.134,2.036-7.646,7.849-5.609,12.982
	c1.557,3.924,5.319,6.316,9.299,6.316c1.227,0,2.474-0.227,3.684-0.707l3.306-1.311c20.812-8.257,36.798-24.779,44.448-45.37
	c4.436,2.322,8.929,4.522,13.477,6.601c-1.089,18.71-11.833,35.448-28.593,44.192l-0.636,0.331c-4.898,2.551-6.801,8.59-4.25,13.488
	c1.782,3.423,5.268,5.383,8.878,5.383c1.556,0,3.135-0.364,4.61-1.132l0.643-0.335c21.002-10.958,35.128-31.038,38.603-53.977
	C162.218,360.766,167.188,362.458,172.209,364.001z"/>
<path d="M462,0H50C22.43,0,0,22.43,0,50v412c0,27.57,22.43,50,50,50h23.126c5.522,0,10-4.477,10-10s-4.478-10-10-10H50
	c-16.542,0-30-13.458-30-30V50c0-16.542,13.458-30,30-30h412c16.542,0,30,13.458,30,30v412c0,16.542-13.458,30-30,30H160.737
	c-5.522,0-10,4.477-10,10s4.478,10,10,10H462c27.57,0,50-22.43,50-50V50C512,22.43,489.57,0,462,0z"/>
<path d="M122.109,492c-2.63,0-5.21,1.07-7.069,2.93c-1.86,1.86-2.931,4.44-2.931,7.07s1.07,5.21,2.931,7.07
	c1.859,1.86,4.439,2.93,7.069,2.93c2.631,0,5.21-1.07,7.07-2.93s2.93-4.44,2.93-7.07s-1.069-5.21-2.93-7.07
	C127.319,493.07,124.74,492,122.109,492z"/>
<path d="M269.073,68c5.522,0,10-4.477,10-10s-4.478-10-10-10h-64.5c-5.522,0-10,4.477-10,10s4.478,10,10,10H269.073z"/>
<path d="M314.5,65.07c1.859-1.86,2.93-4.44,2.93-7.07s-1.07-5.21-2.93-7.07c-1.87-1.86-4.44-2.93-7.07-2.93s-5.21,1.07-7.07,2.93
	c-1.869,1.86-2.93,4.44-2.93,7.07s1.061,5.21,2.93,7.07c1.86,1.86,4.44,2.93,7.07,2.93S312.64,66.93,314.5,65.07z"/>
<g>
</g>
<g>
</g>
<g>
</g>
<g>
</g>
<g>
</g>
<g>
</g>
<g>
</g>
<g>
</g>
<g>
</g>
<g>
</g>
<g>
</g>
<g>
</g>
<g>
</g>
<g>
</g>
<g>
</g>
</svg>
