<?xml version="1.0" encoding="iso-8859-1"?>
<!-- Generator: Adobe Illustrator 19.0.0, SVG Export Plug-In . SVG Version: 6.00 Build 0)  -->
<svg version="1.1" id="Capa_1" xmlns="http://www.w3.org/2000/svg" xmlns:xlink="http://www.w3.org/1999/xlink" x="auto" y="auto"
	 viewBox="0 0 512 512" style="enable-background:new 0 0 512 512;" xml:space="preserve">
<g>
	<path style="fill:#700082;" d="M488.828,424.66c-26.483-21.186-36.873-76.8-27.763-108.579l1.836-6.453l16.984,4.838l-1.845,6.462
		c-7.371,25.777,1.889,74.046,21.822,89.98L488.828,424.66z"/>
	<path style="fill:#700082;" d="M450.578,456.651c-26.483-21.186-36.864-76.8-27.772-108.579l1.845-6.453l16.975,4.864l-1.845,6.444
		c-7.362,25.768,1.898,74.046,21.831,89.988L450.578,456.651z"/>
	<path style="fill:#700082;" d="M404.674,479.603c-27.366-21.928-36.405-86.051-27.772-116.277l1.845-6.462l16.975,4.864
		l-1.845,6.444c-7.53,26.368,2.648,82.317,21.822,97.633L404.674,479.603z"/>
	<path style="fill:#700082;" d="M355.805,494.866c-27.366-21.919-36.414-86.042-27.772-116.277l1.845-6.453l16.975,4.855
		l-1.845,6.453c-7.539,26.359,2.648,82.308,21.822,97.624L355.805,494.866z"/>
	<path style="fill:#700082;" d="M26.598,415.047l-11.026-13.798c20.039-16.031,31.17-76.756,23.314-104.271l16.975-4.846
		C64.574,322.639,54.51,392.713,26.598,415.047z"/>
	<path style="fill:#700082;" d="M71.424,464.26l-11.026-13.789c19.88-15.89,34.428-81.991,27.26-107.149l16.975-4.846
		C113.743,370.353,97.527,443.41,71.424,464.26z"/>
	<path style="fill:#700082;" d="M117.327,479.603l-11.026-13.798c20.303-16.234,32.097-72.051,24.797-97.642l-1.845-6.444
		l16.975-4.846l1.836,6.453C157.184,395.185,143.651,458.505,117.327,479.603z"/>
	<path style="fill:#700082;" d="M166.206,494.866l-11.026-13.798c20.303-16.225,32.097-72.051,24.788-97.633l-1.836-6.453
		l16.975-4.838l1.836,6.444C206.054,410.483,192.53,473.803,166.206,494.866z"/>
	<path style="fill:#700082;" d="M234.946,508.195l-16.772-5.588l0.706-2.127c8.828-26.562,12.632-86.749,9.507-117.407l17.567-1.766
		c3.337,32.538-0.547,95.435-10.258,124.778L234.946,508.195z"/>
	<path style="fill:#700082;" d="M287.055,508.195l-0.706-2.136c-9.772-29.316-13.639-92.213-10.319-124.743l17.558,1.766
		c-3.116,30.623,0.653,90.809,9.507,117.407l0.715,2.127L287.055,508.195z"/>
</g>
<g>
	<path style="fill:#454545;" d="M0,118.554h17.655v70.621H0V118.554z"/>
	<path style="fill:#454545;" d="M35.31,100.899h17.655v97.103H35.31V100.899z"/>
	<path style="fill:#454545;" d="M70.621,92.072h17.655v97.103H70.621V92.072z"/>
	<path style="fill:#454545;" d="M105.931,74.417h17.655v105.931h-17.655V74.417z"/>
	<path style="fill:#454545;" d="M141.241,65.589h17.655V171.52h-17.655V65.589z"/>
	<path style="fill:#454545;" d="M176.552,47.934h17.655v114.759h-17.655V47.934z"/>
	<path style="fill:#454545;" d="M211.862,39.106h17.655v114.759h-17.655V39.106z"/>
	<path style="fill:#454545;" d="M247.172,30.279h17.655V136.21h-17.655V30.279z"/>
	<path style="fill:#454545;" d="M282.483,21.451h17.655v105.931h-17.655V21.451z"/>
	<path style="fill:#454545;" d="M317.793,12.623h17.655v105.931h-17.655V12.623z"/>
	<path style="fill:#454545;" d="M353.103,3.796h17.655v105.931h-17.655V3.796z"/>
	<path style="fill:#454545;" d="M388.414,3.796h17.655v105.931h-17.655V3.796z"/>
	<path style="fill:#454545;" d="M423.724,21.451h17.655v97.103h-17.655V21.451z"/>
	<path style="fill:#454545;" d="M459.034,47.934h17.655v79.448h-17.655V47.934z"/>
	<path style="fill:#454545;" d="M494.345,65.589H512v70.621h-17.655V65.589z"/>
</g>
<path style="fill:#BB27D1;" d="M264.828,389.694c-104.907,0-218.041-37.023-237.4-119.605c-0.618-1.236-0.945-2.604-0.945-3.981
	v-1.351c-0.009-4.873,3.937-8.836,8.81-8.845c3.487-0.009,6.656,2.039,8.077,5.226c131.222,98.463,311.693,98.463,442.915,0
	c1.986-4.449,7.212-6.444,11.661-4.458c3.187,1.421,5.235,4.59,5.226,8.077v1.351c0,1.386-0.327,2.745-0.945,3.981
	C482.869,352.671,369.735,389.694,264.828,389.694z"/>
<path d="M264.828,389.694c-104.907,0-218.068-37.014-237.4-119.614c-0.609-1.218-0.945-2.578-0.945-3.981v-1.359
	c0-4.546,3.452-8.342,7.962-8.783c3.822-0.424,7.398,1.774,8.916,5.173c130.878,98.445,312.029,98.445,442.924,0
	c1.51-3.39,5.049-5.553,8.916-5.173c4.52,0.441,7.971,4.246,7.971,8.783v1.351c0,1.404-0.335,2.763-0.945,3.981
	C482.895,352.671,369.735,389.694,264.828,389.694z M54.484,290.445c32.962,55.852,126.958,81.593,210.344,81.593
	s177.382-25.732,210.335-81.585C347.569,373.363,182.069,373.363,54.484,290.445z"/>
<path d="M488.828,424.651c-26.518-21.213-36.873-76.773-27.772-108.632l1.845-6.453l16.984,4.864l-1.854,6.444
	c-7.362,25.777,1.898,74.046,21.831,89.98L488.828,424.651z"/>
<path d="M450.586,456.607c-26.536-21.204-36.891-76.765-27.772-108.632l1.845-6.444l16.984,4.864l-1.854,6.444
	c-7.371,25.777,1.889,74.037,21.822,89.971L450.586,456.607z"/>
<path d="M404.674,479.559c-27.401-21.919-36.405-86.042-27.772-116.277l1.845-6.453l16.984,4.864l-1.854,6.444
	c-7.53,26.359,2.675,82.308,21.831,97.633L404.674,479.559z"/>
<path d="M355.796,494.857c-27.401-21.91-36.396-86.034-27.772-116.268l1.845-6.453l16.984,4.846l-1.845,6.453
	c-7.539,26.368,2.675,82.317,21.822,97.633L355.796,494.857z"/>
<path d="M26.598,415.047l-11.026-13.798c20.392-16.313,29.864-65.66,22.334-92.028l-1.88-6.585l16.975-4.846l1.88,6.585
	C64.159,336.834,53.61,393.428,26.598,415.047z"/>
<path d="M71.398,464.26l-11.026-13.798c20.303-16.234,32.106-72.051,24.788-97.633l-1.845-6.444l16.975-4.864l1.845,6.444
	C111.263,379.869,97.73,443.198,71.398,464.26z"/>
<path d="M117.31,479.559l-11.026-13.798c20.295-16.234,32.097-72.051,24.788-97.642l-1.845-6.435l16.975-4.864l1.845,6.444
	C157.158,395.185,143.634,458.496,117.31,479.559z"/>
<path d="M166.206,494.857l-11.026-13.798c20.295-16.234,32.106-72.042,24.797-97.633l-1.845-6.453l16.975-4.846l1.845,6.453
	C206.062,410.483,192.53,473.803,166.206,494.857z"/>
<path d="M234.955,508.178l-16.755-5.57l0.706-2.127c8.854-26.553,12.632-86.731,9.516-117.372l17.558-1.792
	c3.319,32.547-0.547,95.444-10.319,124.743L234.955,508.178z"/>
<path d="M287.064,508.204l-0.715-2.127c-9.763-29.325-13.639-92.213-10.328-124.76l17.567,1.792
	c-3.125,30.641,0.653,90.809,9.498,117.363l0.715,2.11L287.064,508.204z"/>
<rect y="118.554" width="17.655" height="70.621"/>
<rect x="35.31" y="100.899" width="17.655" height="97.103"/>
<rect x="70.621" y="92.072" width="17.655" height="97.103"/>
<rect x="105.931" y="74.417" width="17.655" height="105.931"/>
<rect x="141.241" y="65.589" width="17.655" height="105.931"/>
<rect x="176.552" y="47.934" width="17.655" height="114.759"/>
<rect x="211.862" y="39.106" width="17.655" height="114.759"/>
<rect x="247.172" y="30.279" width="17.655" height="105.931"/>
<rect x="282.483" y="21.451" width="17.655" height="105.931"/>
<rect x="317.793" y="12.623" width="17.655" height="105.931"/>
<rect x="353.103" y="3.796" width="17.655" height="105.931"/>
<rect x="388.414" y="3.796" width="17.655" height="105.931"/>
<rect x="423.724" y="21.451" width="17.655" height="97.103"/>
<rect x="459.034" y="47.934" width="17.655" height="79.448"/>
<rect x="494.345" y="65.589" width="17.655" height="70.621"/>
<g>
</g>
<g>
</g>
<g>
</g>
<g>
</g>
<g>
</g>
<g>
</g>
<g>
</g>
<g>
</g>
<g>
</g>
<g>
</g>
<g>
</g>
<g>
</g>
<g>
</g>
<g>
</g>
<g>
</g>
</svg>
