<svg id="Layer_3" enable-background="new 0 0 64 64" height="auto" viewBox="0 0 64 64" width="auto" xmlns="http://www.w3.org/2000/svg"><g><g><path d="m31 1v39c0 1.298-.421 2.561-1.2 3.6l-.6.8c-.779 1.039-1.2 2.302-1.2 3.6 0 2.761 2.239 5 5 5 2.761 0 5-2.239 5-5 0 1.657 1.343 3 3 3 1.657 0 3-1.343 3-3 0 1.657 1.343 3 3 3 1.657 0 3-1.343 3-3 0 1.657 1.343 3 3 3 1.657 0 3-1.343 3-3 0 1.657 1.343 3 3 3 1.657 0 3-1.343 3-3v-6.838c0-2.094-.338-4.175-1-6.162-.662-1.987-1-4.068-1-6.162v-27.838z" fill="#d19e6d"/></g><g><path d="m31 38.788c13.216-.021 23.924-10.74 23.924-23.961 0-5.152-1.631-9.92-4.398-13.827h-19.526z" fill="#e2b88f"/></g><g><path d="m4 1v8.838c0 2.094-.338 4.175-1 6.162-.662 1.987-1 4.068-1 6.162v6.838c0 1.657 1.343 3 3 3 1.657 0 3-1.343 3-3 0 1.657 1.343 3 3 3 1.657 0 3-1.343 3-3 0 1.657 1.343 3 3 3 1.657 0 3-1.343 3-3 0 1.657 1.343 3 3 3 1.657 0 3-1.343 3-3 0 2.761 2.239 5 5 5 2.761 0 5-2.239 5-5 0-1.298-.421-2.561-1.2-3.6l-.6-.8c-.779-1.039-1.2-2.302-1.2-3.6v-20z" fill="#d19e6d"/></g><g><path d="m4 9.838c0 2.094-.338 4.175-1 6.162s-1 4.068-1 6.162v6.838c0 1.13.632 2.102 1.555 2.614.658.06 1.321.101 1.995.101.264 0 .521-.03.783-.04.984-.492 1.667-1.499 1.667-2.675 0 .976.474 1.835 1.196 2.383 1.598-.273 3.141-.705 4.598-1.309.128-.335.206-.694.206-1.074 0 .321.064.625.157.915 7.614-3.324 12.941-10.911 12.941-19.75 0-3.282-.755-6.381-2.068-9.165h-21.03z" fill="#e2b88f"/></g><g><path d="m29 27v3l1 1h2l1-1v-3z" fill="#e7e4dd"/></g><g><path d="m31 46v3l1 1h2l1-1v-3z" fill="#e7e4dd"/></g><g><path d="m31 35c-2.256 0-4.226-1.252-5.25-3.098-.717.68-1.686 1.098-2.75 1.098-1.193 0-2.267-.525-3-1.357-.733.832-1.807 1.357-3 1.357s-2.267-.525-3-1.357c-.733.832-1.807 1.357-3 1.357s-2.267-.525-3-1.357c-.733.832-1.807 1.357-3 1.357-2.206 0-4-1.794-4-4v-6.838c0-2.205.354-4.385 1.051-6.479.63-1.889.949-3.856.949-5.845v-8.838h2v8.838c0 2.205-.354 4.385-1.051 6.479-.63 1.889-.949 3.856-.949 5.845v6.838c0 1.103.897 2 2 2s2-.897 2-2c0-.553.448-1 1-1s1 .447 1 1c0 1.103.897 2 2 2s2-.897 2-2c0-.553.448-1 1-1s1 .447 1 1c0 1.103.897 2 2 2s2-.897 2-2c0-.553.448-1 1-1s1 .447 1 1c0 1.103.897 2 2 2s2-.897 2-2c0-.553.448-1 1-1s1 .447 1 1c0 2.206 1.794 4 4 4s4-1.794 4-4c0-1.075-.355-2.141-1-2.999l-.6-.802c-.902-1.202-1.4-2.693-1.4-4.199v-20h2v20c0 1.075.355 2.141 1 2.999l.6.802c.902 1.202 1.4 2.693 1.4 4.199 0 3.309-2.691 6-6 6z"/></g><g><path d="m25 21h2v8h-2z"/></g><g><path d="m19 21h2v8h-2z"/></g><g><path d="m13 21h2v8h-2z"/></g><g><path d="m7 21h2v8h-2z"/></g><g><path d="m33 54c-3.309 0-6-2.691-6-6 0-1.506.498-2.997 1.4-4.2l.6-.8c.646-.859 1-1.925 1-3v-6h2v6c0 1.506-.498 2.997-1.4 4.2l-.6.8c-.646.859-1 1.925-1 3 0 2.206 1.794 4 4 4s4-1.794 4-4c0-.553.448-1 1-1s1 .447 1 1c0 1.103.897 2 2 2s2-.897 2-2c0-.553.448-1 1-1s1 .447 1 1c0 1.103.897 2 2 2s2-.897 2-2c0-.553.448-1 1-1s1 .447 1 1c0 1.103.897 2 2 2s2-.897 2-2c0-.553.448-1 1-1s1 .447 1 1c0 1.103.897 2 2 2s2-.897 2-2v-6.838c0-1.989-.319-3.956-.949-5.846-.697-2.093-1.051-4.273-1.051-6.478v-27.838h2v27.838c0 1.989.319 3.956.949 5.846.697 2.093 1.051 4.273 1.051 6.478v6.838c0 2.206-1.794 4-4 4-1.193 0-2.267-.525-3-1.357-.733.832-1.807 1.357-3 1.357s-2.267-.525-3-1.357c-.733.832-1.807 1.357-3 1.357s-2.267-.525-3-1.357c-.733.832-1.807 1.357-3 1.357-1.064 0-2.033-.418-2.75-1.098-1.024 1.846-2.994 3.098-5.25 3.098z"/></g><g><path d="m37 40h2v8h-2z"/></g><g><path d="m43 40h2v8h-2z"/></g><g><path d="m49 40h2v8h-2z"/></g><g><path d="m55 40h2v8h-2z"/></g><g><path d="m32 32h-2c-.265 0-.52-.105-.707-.293l-1-1c-.188-.187-.293-.441-.293-.707v-3c0-.553.448-1 1-1h4c.552 0 1 .447 1 1v3c0 .266-.105.52-.293.707l-1 1c-.187.188-.442.293-.707.293zm-1.586-2h1.172l.414-.414v-1.586h-2v1.586z"/></g><g><path d="m34 51h-2c-.265 0-.52-.105-.707-.293l-1-1c-.188-.187-.293-.441-.293-.707v-3c0-.553.448-1 1-1h4c.552 0 1 .447 1 1v3c0 .266-.105.52-.293.707l-1 1c-.187.188-.442.293-.707.293zm-1.586-2h1.172l.414-.414v-1.586h-2v1.586z"/></g><g><path d="m13 52-1 3-2 2-5 2 2-5 2-2 3-1" fill="#a3d350"/></g><g><path d="m15 48 1-3 2-2 5-2-2 5-2 2-3 1" fill="#a3d350"/></g><g><path d="m12 49-3-1-2-2-2-5 5 2 2 2 1 3" fill="#94c049"/></g><g><path d="m16 51 3 1 2 2 2 5-5-2-2-2-1-3" fill="#94c049"/></g><g><path d="m12 51-3 1h-2l-5-2 5-2h2l3 1" fill="#739937"/></g><g><path d="m16 49 3-1h2l5 2-5 2h-2l-3-1" fill="#739937"/></g><g><path d="m15 52 1 3v2l-2 5-2-5v-2l1-3" fill="#668831"/></g><g><path d="m13 48-1-3v-2l2-5 2 5v2l-1 3" fill="#668831"/></g><g><circle cx="14" cy="50" fill="#f8cf6a" r="2"/></g><g><path d="m14 53c-1.654 0-3-1.346-3-3s1.346-3 3-3 3 1.346 3 3-1.346 3-3 3zm0-4c-.551 0-1 .448-1 1s.449 1 1 1 1-.448 1-1-.449-1-1-1z"/></g><g><path d="m15.949 48.316-1.897-.633.948-2.845v-1.646l-1-2.5-1 2.5v1.646l.949 2.846-1.897.633-1-3c-.035-.103-.052-.21-.052-.317v-2c0-.127.024-.253.071-.371l2-5c.153-.38.52-.629.929-.629s.776.249.929.629l2 5c.047.118.071.244.071.371v2c0 .107-.017.214-.051.316z"/></g><g><path d="m14 63c-.409 0-.776-.249-.929-.629l-2-5c-.047-.118-.071-.244-.071-.371v-2c0-.107.017-.214.051-.316l1-3 1.897.633-.948 2.845v1.646l1 2.5 1-2.5v-1.646l-.949-2.846 1.897-.633 1 3c.035.103.052.21.052.317v2c0 .127-.024.253-.071.371l-2 5c-.153.38-.52.629-.929.629z"/></g><g><path d="m21 53h-2c-.107 0-.214-.018-.316-.052l-3-1 .633-1.896 2.845.948h1.646l2.5-1-2.5-1h-1.646l-2.846.948-.633-1.896 3-1c.103-.034.21-.052.317-.052h2c.127 0 .253.024.372.071l5 2c.379.153.628.52.628.929s-.249.776-.628.929l-5 2c-.119.047-.245.071-.372.071z"/></g><g><path d="m9 53h-2c-.127 0-.253-.024-.372-.071l-5-2c-.379-.153-.628-.52-.628-.929s.249-.776.628-.929l5-2c.119-.047.245-.071.372-.071h2c.107 0 .214.018.316.052l3 1-.633 1.896-2.845-.948h-1.646l-2.5 1 2.5 1h1.646l2.846-.948.633 1.896-3 1c-.103.034-.21.052-.317.052z"/></g><g><path d="m11.684 49.948-3-1c-.147-.049-.281-.132-.391-.241l-2-2c-.096-.096-.171-.21-.222-.336l-2-5c-.148-.371-.061-.795.222-1.078.282-.283.707-.369 1.079-.222l5 2c.125.051.24.126.335.222l2 2c.11.109.192.243.242.391l1 3-1.699.566zm-2.144-2.822 2.379.793-.793-2.379-1.688-1.688-2.643-1.058 1.057 2.644z"/></g><g><path d="m23 60c-.125 0-.251-.023-.372-.071l-5-2c-.125-.051-.24-.126-.335-.222l-2-2c-.11-.109-.192-.243-.242-.391l-1-3 1.699-.566.566-1.698 3 1c.147.049.281.132.391.241l2 2c.096.096.171.21.222.336l2 5c.148.371.061.795-.222 1.078-.191.191-.447.293-.707.293zm-4.438-3.853 2.643 1.058-1.057-2.644-1.688-1.688-2.379-.793.793 2.379z"/></g><g><path d="m5 60c-.26 0-.516-.102-.707-.293-.283-.283-.37-.707-.222-1.078l2-5c.05-.126.126-.24.222-.336l2-2c.11-.109.244-.192.391-.241l3-1 .566 1.698 1.699.566-1 3c-.049.147-.132.281-.242.391l-2 2c-.096.096-.21.171-.335.222l-5 2c-.121.048-.247.071-.372.071zm2.852-5.438-1.057 2.644 2.643-1.058 1.688-1.688.793-2.379-2.379.793z"/></g><g><path d="m16.316 49.948-.566-1.698-1.699-.566 1-3c.049-.147.132-.281.242-.391l2-2c.096-.096.21-.171.335-.222l5-2c.371-.147.796-.062 1.079.222s.37.707.222 1.078l-2 5c-.05.126-.126.24-.222.336l-2 2c-.11.109-.244.192-.391.241zm.558-4.408-.793 2.379 2.379-.793 1.688-1.688 1.057-2.644-2.643 1.058z"/></g></g></svg>