<svg id="Layer_1" height="auto" viewBox="0 0 512 512" width="auto" xmlns="http://www.w3.org/2000/svg" data-name="Layer 1"><path d="m462.22 285.22v202.35h-116.54v-202.35a58.1 58.1 0 0 1 18.58-42.66v52.05a39.615 39.615 0 1 0 79.23 0v-52.2a58.133 58.133 0 0 1 18.73 42.81z" fill="#e48e66"/><path d="m443.49 242.41v52.2a39.615 39.615 0 1 1 -79.23 0v-67.22a22.111 22.111 0 0 1 22.11-22.11h35.01a22.111 22.111 0 0 1 22.11 22.11z" fill="#f8ec7d"/><path d="m345.68 286.57v201h-160.61v-352.98a80.072 80.072 0 0 1 25.6-58.79v71.74a54.6 54.6 0 0 0 109.19 0v-71.95a80.1 80.1 0 0 1 25.82 59z" fill="#cc7350"/><path d="m319.86 75.59v71.95a54.6 54.6 0 0 1 -109.19 0v-92.65a30.465 30.465 0 0 1 30.47-30.46h48.25a30.465 30.465 0 0 1 30.47 30.46z" fill="#f8ec7d"/><path d="m185.07 207.57v280h-135.29v-281.34a67.485 67.485 0 0 1 21.56-49.52h.01v60.43a45.985 45.985 0 1 0 91.97 0v-60.6a67.485 67.485 0 0 1 21.75 49.69z" fill="#e48e66"/><path d="m163.32 156.54v60.6a45.985 45.985 0 1 1 -91.97 0v-78.04a25.662 25.662 0 0 1 25.66-25.66h40.64a25.664 25.664 0 0 1 25.67 25.66z" fill="#f8ec7d"/><g fill="#63316d"><path d="m450.49 239.461v-12.071a29.143 29.143 0 0 0 -29.11-29.11h-35.01a29.143 29.143 0 0 0 -29.11 29.11v12.234a64.792 64.792 0 0 0 -4.58 5.221v-110.255a87.581 87.581 0 0 0 -25.82-61.977v-17.723a37.508 37.508 0 0 0 -37.47-37.46h-48.25a37.508 37.508 0 0 0 -37.47 37.46v17.948a87.617 87.617 0 0 0 -25.6 61.752v28.159a74.553 74.553 0 0 0 -7.75-9.159v-14.49a32.7 32.7 0 0 0 -32.67-32.66h-40.64a32.7 32.7 0 0 0 -32.66 32.66v14.666a74.926 74.926 0 0 0 -21.57 52.464v281.34a7 7 0 0 0 7 7h412.44a7 7 0 0 0 7-7v-202.35a65.5 65.5 0 0 0 -18.73-45.759zm-79.23-12.071a15.127 15.127 0 0 1 15.11-15.11h35.01a15.127 15.127 0 0 1 15.11 15.11v67.22a32.615 32.615 0 1 1 -65.23 0zm-153.59-172.5a23.491 23.491 0 0 1 23.47-23.46h48.25a23.492 23.492 0 0 1 23.47 23.46v92.65a47.6 47.6 0 0 1 -95.19 0zm-25.6 79.7a73.523 73.523 0 0 1 11.6-39.526v52.476a61.6 61.6 0 0 0 123.19 0v-52.819a73.511 73.511 0 0 1 11.82 39.869v345.98h-146.61zm-113.72 4.51a18.681 18.681 0 0 1 18.66-18.66h40.64a18.686 18.686 0 0 1 18.67 18.66v78.04a38.985 38.985 0 1 1 -77.97 0zm-21.57 67.13a60.761 60.761 0 0 1 7.57-29.279v40.189a52.985 52.985 0 1 0 105.97 0v-40.52a60.74 60.74 0 0 1 7.75 29.61v274.34h-121.29zm398.44 274.34h-37.367a7 7 0 0 0 -6.853-5.57h-40a7 7 0 0 0 -6.853 5.57h-11.467v-195.35a51.069 51.069 0 0 1 4.58-21.253v30.643a46.615 46.615 0 1 0 93.23 0v-30.83a51.286 51.286 0 0 1 4.73 21.44z"/><path d="m158 399h-79a7 7 0 0 0 0 14h79a7 7 0 0 0 0-14z"/><path d="m158 378h-50a7 7 0 0 0 0 14h50a7 7 0 0 0 0-14z"/><path d="m129 420h-50a7 7 0 0 0 0 14h50a7 7 0 0 0 0-14z"/><path d="m221 358h89a7 7 0 0 0 0-14h-89a7 7 0 0 0 0 14z"/><path d="m241 337h40a7 7 0 0 0 0-14h-40a7 7 0 0 0 0 14z"/><path d="m310 365h-60a7 7 0 0 0 0 14h60a7 7 0 0 0 0-14z"/><path d="m440 454h-69a7 7 0 0 0 0 14h69a7 7 0 0 0 0-14z"/><path d="m400 447h20a7 7 0 0 0 0-14h-20a7 7 0 0 0 0 14z"/></g></svg>