<svg id="Capa_1" enable-background="new 0 0 512 512" height="auto" viewBox="0 0 512 512" width="auto" xmlns="http://www.w3.org/2000/svg"><g><path d="m512 115.7c0-12.02-4.681-23.321-13.181-31.82l-70.71-70.711c-17.545-17.545-46.095-17.544-63.64 0l-26.55 26.551c-47.379-5.948-95.093 10.241-129.013 44.16l-204.512 204.513c-2.814 2.813-4.394 6.628-4.394 10.607v197.99c0 8.284 6.716 15 15 15h197.99c3.979 0 7.794-1.581 10.606-4.394l204.513-204.513c33.919-33.919 50.108-81.637 44.16-129.013l26.55-26.55c8.5-8.499 13.181-19.8 13.181-31.82zm-105.104 166.17-200.119 200.12h-176.777v-176.777l200.119-200.12c21.264-21.264 49.258-33.881 78.624-36.197l-50.34 50.34c-37.04 37.041-37.04 97.31 0 134.35 17.943 17.943 41.8 27.825 67.176 27.825 25.375 0 49.231-9.882 67.175-27.825l50.339-50.339c-2.316 29.363-14.933 57.359-36.197 78.623zm-91.923-84.853c14.176 14.177 20.879 34.2 18.472 53.906-2.592.311-5.214.488-7.865.488-17.362 0-33.686-6.761-45.963-19.038-14.673-14.673-20.832-34.672-18.514-53.831 19.693-2.396 39.701 4.307 53.87 18.475zm162.633-70.71-106.065 106.066c-2.42 2.42-5.002 4.617-7.714 6.599-1.008-23.476-10.658-46.183-27.642-63.167-16.984-16.983-39.688-26.633-63.163-27.642 1.966-2.698 4.16-5.28 6.593-7.713l106.068-106.067c5.85-5.848 15.366-5.849 21.214 0l70.71 70.711c5.848 5.848 5.848 15.364-.001 21.213z"/><path d="m173.551 239.444c-5.857-5.858-15.355-5.858-21.213 0s-5.858 15.355 0 21.213l98.995 98.995c2.929 2.929 6.768 4.394 10.606 4.394s7.678-1.464 10.606-4.394c5.858-5.858 5.858-15.355 0-21.213z"/><path d="m131.124 281.87c-5.857-5.858-15.355-5.858-21.213 0s-5.858 15.355 0 21.213l98.995 98.995c2.929 2.929 6.768 4.394 10.606 4.394s7.678-1.464 10.606-4.394c5.858-5.858 5.858-15.355 0-21.213z"/></g></svg>