<svg id="waxing" height="auto" viewBox="0 0 512 512" width="auto" xmlns="http://www.w3.org/2000/svg"><g id="FilledOutline"><path d="m304 48h128a16 16 0 0 1 16 16 16 16 0 0 1 -16 16h-128z" fill="#a3783a"/><path d="m368 488h-296a24 24 0 0 1 -24-24v-168h320z" fill="#86bd40"/><path d="m48 296h320v32h-320z" fill="#ccdce4"/><path d="m352 296a48 48 0 0 0 -48-48h-88a24 24 0 0 1 -24-24v-64a16 16 0 0 1 16-16 16 16 0 0 1 16 16v24a16 16 0 0 0 16 16 16 16 0 0 0 16-16v-64a16 16 0 0 1 16-16 16 16 0 0 1 16 16v24a16 16 0 0 0 16 16 16 16 0 0 0 16-16v-96a24 24 0 0 0 -24-24h-128a24 24 0 0 0 -24 24v176a24 24 0 0 1 -24 24h-8a48 48 0 0 0 -48 48z" fill="#ffc11b"/><path d="m128 408h320a0 0 0 0 1 0 0v56a24 24 0 0 1 -24 24h-272a24 24 0 0 1 -24-24v-56a0 0 0 0 1 0 0z" fill="#a3783a"/><path d="m128 408h320v32h-320z" fill="#ccdce4"/><path d="m56 464v-128h304v48h16v-88a8 8 0 0 0 -8-8h-8.581a56.078 56.078 0 0 0 -55.419-48h-88a16.019 16.019 0 0 1 -16-16v-64a8 8 0 0 1 16 0v24a24 24 0 0 0 48 0v-64a8 8 0 0 1 16 0v24a24 24 0 0 0 48 0v-56h104a24 24 0 0 0 0-48h-105.013a32.057 32.057 0 0 0 -30.987-24h-128a32.036 32.036 0 0 0 -32 32v176a16.019 16.019 0 0 1 -16 16h-8a56.078 56.078 0 0 0 -55.419 48h-8.581a8 8 0 0 0 -8 8v168a32.036 32.036 0 0 0 32 32h32v-16h-32a16.019 16.019 0 0 1 -16-16zm384-400a8.009 8.009 0 0 1 -8 8h-104v-16h104a8.009 8.009 0 0 1 8 8zm-328 192h8a32.036 32.036 0 0 0 32-32v-176a16.019 16.019 0 0 1 16-16h128a16.019 16.019 0 0 1 16 16v96a8 8 0 0 1 -16 0v-24a24 24 0 0 0 -48 0v64a8 8 0 0 1 -16 0v-24a24 24 0 0 0 -48 0v64a32.036 32.036 0 0 0 32 32h88a40.069 40.069 0 0 1 39.2 32h-270.395a40.069 40.069 0 0 1 39.195-32zm248 48v16h-304v-16z"/><path d="m448 400h-320a8 8 0 0 0 -8 8v56a32.036 32.036 0 0 0 32 32h272a32.036 32.036 0 0 0 32-32v-56a8 8 0 0 0 -8-8zm-8 16v16h-304v-16zm-16 64h-272a16.019 16.019 0 0 1 -16-16v-16h304v16a16.019 16.019 0 0 1 -16 16z"/><path d="m200 352h16v16h-16z"/></g></svg>