<svg height="auto" viewBox="0 0 512 512" width="auto" xmlns="http://www.w3.org/2000/svg"><g id="Beauty_Spa_Waxing" data-name="Beauty Spa Waxing"><g id="Filled"><path d="m0 88v-64h296a32 32 0 1 1 0 64z" fill="#c97e67"/><path d="m296 24h-16a95.621 95.621 0 0 1 -24.463 64h40.463a32 32 0 0 0 0-64z" fill="#c0694e"/><path d="m104 24v256a24 24 0 0 0 24 24 24 24 0 0 0 24-24v-144a16 16 0 0 1 16-16 16 16 0 0 1 16 16v32a32 32 0 0 0 32 32 32 32 0 0 0 32-32v-144a16 16 0 0 0 -16-16h-112a16 16 0 0 0 -16 16z" fill="#ffd740"/><path d="m512 250.141v69.59l-96-96-16-40-16 144v40c7.21 7.21 40.97 39.03 24 56-11.31 11.31-18.51 11.88-29.83 23.2s-21.49 32.81-33.94 45.25c-17.26 17.26-40.36 13.07-56.23 3.55l24-24 24-64.4v-23.6l-8-192v-16c0-34.69 24.13-56 58.82-56a54.919 54.919 0 0 1 43.95 21.98l73.23 97.64z" fill="#f9d4c7"/><path d="m512 284.531v146.5l-8-8.35c-39.24-41.06-96.05-102.75-116.18-136.09a14.044 14.044 0 0 0 -23.93-.35c-10.62 16.69-39.02 60.62-51.89 73.49-32 32-120 56-128 80s-8 40-24 48c-9.4 4.7-24.33 1.11-35.05-2.64a59.884 59.884 0 0 0 -29.71-2.57 79.7 79.7 0 0 1 -62.42-.15l-10.11-4.34a24.244 24.244 0 0 1 -14.71-22.3l56-8s61.65-24.27 80-40c44.84-38.43 151.22-143.54 191.85-183.91a55.34 55.34 0 0 1 39.02-16.09c5.58 0 26.67 6.52 31.27 9.67l97.86 62.33z" fill="#ffdfd4"/><path d="m225.355 332.1 27.9 27.9 73.539-73.539-26.982-26.982z" fill="#ededed"/><path d="m248 264h-40l21.636 36.51a25.679 25.679 0 0 1 -4.281 31.59l27.9 27.9a60.522 60.522 0 0 0 7.879-75.887z" fill="#fff"/><circle cx="28" cy="52" fill="#e8beb3" r="12"/><circle cx="56" cy="40" fill="#e8beb3" r="8"/><circle cx="128" cy="24" fill="#ffe7a4" r="8"/><circle cx="152" cy="32" fill="#ffe7a4" r="8"/><g fill="#ffc400"><path d="m152 179.879a120.544 120.544 0 0 1 -48 46.269v53.852a24 24 0 0 0 24 24 24 24 0 0 0 24-24z"/><path d="m248 131.868a120.4 120.4 0 0 1 -59.923 51.758 32 32 0 0 0 59.923-15.626z"/></g></g><g id="Outline"><path d="m320 191.729a8 8 0 1 0 16 0v-16c0-29.608 19.473-48 50.82-48a46.921 46.921 0 0 1 37.55 18.78l73.23 97.639a8 8 0 1 0 12.8-9.6l-73.23-97.64a62.914 62.914 0 0 0 -50.35-25.18c-39.967 0-66.82 25.719-66.82 64z"/><path d="m392 327.729a8 8 0 0 0 -16 0v40a8 8 0 0 0 2.343 5.656l1.159 1.15c16.707 16.535 25.19 29.228 25.212 37.724a7.615 7.615 0 0 1 -2.371 5.812 72.179 72.179 0 0 1 -13.577 10.529 87.693 87.693 0 0 0 -16.248 12.673c-6.094 6.093-11.475 14.235-17.17 22.853-5.4 8.162-10.973 16.6-16.771 22.4-12.281 12.282-26.984 10.41-36.911 6.855l15.991-15.991a8.013 8.013 0 0 0 1.84-2.864l24-64.4a8 8 0 0 0 .5-2.794v-23.6a8 8 0 0 0 -16 0v22.156l-22.885 61.412-22.769 22.768a8 8 0 0 0 1.541 12.517c9.23 5.539 20.583 9.455 32.185 9.454a46.635 46.635 0 0 0 33.821-14.205c6.943-6.942 12.973-16.068 18.806-24.894 5.238-7.925 10.185-15.411 15.135-20.361a72.089 72.089 0 0 1 13.578-10.522 87.815 87.815 0 0 0 16.248-12.674 23.7 23.7 0 0 0 7.057-17.169c-.044-16.879-16.045-35.138-28.714-47.814z"/><circle cx="152" cy="216.43" r="8"/><path d="m8 96h88v184a32 32 0 1 0 64 0v-31.57a8 8 0 0 0 -16 0v31.57a16 16 0 0 1 -32 0v-256a8.036 8.036 0 0 1 8-8h88v56a8 8 0 0 0 16 0v-56h8a8.036 8.036 0 0 1 8 8v144a24 24 0 0 1 -48 0v-32a24 24 0 0 0 -48 0v48.43a8 8 0 0 0 16 0v-48.43a8 8 0 0 1 16 0v32a40 40 0 0 0 80 0v-72h40a40 40 0 0 0 0-80h-16a8 8 0 0 0 0 16h16a24 24 0 1 1 0 48h-40v-56a24 24 0 0 0 -24-24h-112a24 24 0 0 0 -24 24v56h-88a8 8 0 0 0 0 16z"/><path d="m8 32h64a8 8 0 0 0 0-16h-64a8 8 0 0 0 0 16z"/><path d="m374.864 215.73c4.231.059 23.239 5.936 26.756 8.271.073.05.148.1.222.146l9.384 5.977a8.008 8.008 0 0 0 .99.631l87.484 55.723a8 8 0 1 0 8.6-13.5l-85.855-54.678-15.017-37.543a8 8 0 0 0 -14.856 5.941l7.775 19.438c-9.014-3.28-20.708-6.407-25.477-6.407a62.939 62.939 0 0 0 -44.659 18.416c-8.535 8.481-21.13 20.97-35.994 35.62-.02.02-.042.036-.062.056s-.027.031-.041.046q-4.861 4.792-10.023 9.868a8 8 0 0 0 11.219 11.409q2.261-2.225 4.462-4.392l15.708 15.708-36.873 36.874a68.391 68.391 0 0 0 -10.775-43.6l-13.132-20.108a8 8 0 0 0 -6.7-3.626h-40a8 8 0 0 0 -6.882 12.078l21.635 36.51a17.613 17.613 0 0 1 -2.947 21.75c-.017.017-.032.036-.05.053s-.039.034-.058.052c-.078.079-.145.163-.219.244-.091.1-.184.195-.269.3s-.182.233-.27.351c-.069.093-.14.184-.2.279-.092.136-.175.276-.258.416-.05.084-.1.167-.149.253-.083.152-.156.308-.228.464-.037.081-.078.16-.113.243-.067.16-.124.322-.181.485-.03.085-.062.169-.089.255-.05.16-.089.322-.128.484-.023.094-.049.186-.069.281-.032.158-.054.318-.076.478-.015.1-.033.2-.044.3-.017.165-.023.33-.029.5 0 .085-.015.17-.016.255v.034c0 .185.011.369.022.553 0 .077 0 .154.011.23a7.963 7.963 0 0 0 1.77 4.32 7.757 7.757 0 0 0 .538.6l27.9 27.9a8 8 0 0 0 11.314 0l73.539-73.539a8 8 0 0 0 0-11.314l-21.283-21.283c12.389-12.228 22.895-22.646 30.323-30.028a47.037 47.037 0 0 1 33.37-13.774zm-122.047 132.519-16.734-16.735a33.536 33.536 0 0 0 .435-35.082l-14.478-24.432h21.629l10.767 16.487a52.809 52.809 0 0 1 -1.619 59.762z"/><path d="m394.668 282.455a22.043 22.043 0 0 0 -37.527-.51c-23.371 36.728-42.361 63.692-50.8 72.128-14.265 14.266-42.221 27.7-66.886 39.561-32.283 15.517-57.783 27.775-63.046 43.566-2 6-3.521 11.532-4.862 16.409-4.288 15.6-6.546 22.675-15.126 26.966-5.272 2.633-15.78 1.53-28.82-3.033a68.119 68.119 0 0 0 -33.676-2.914 8 8 0 0 0 -1.806.524 71.7 71.7 0 0 1 -56.145-.133l-10.12-4.344a16.229 16.229 0 0 1 -8.4-8.214l47.677-6.811a7.991 7.991 0 0 0 1.8-.475c2.568-1.012 63.123-24.953 82.276-41.371 13.223-11.337 32.917-29.43 58.534-53.775a8 8 0 1 0 -11.022-11.6c-25.42 24.157-44.909 42.064-57.926 53.224-13.968 11.974-59.37 31.354-76.857 38.288l-55.067 7.87a8 8 0 0 0 -6.869 7.919 32.21 32.21 0 0 0 19.554 29.652l10.111 4.34a87.7 87.7 0 0 0 67.768.55 52.084 52.084 0 0 1 24.876 2.37c10.149 3.549 19.012 5.327 26.522 5.327a32.709 32.709 0 0 0 14.747-3.083c15.323-7.661 19.065-21.274 23.4-37.034 1.351-4.914 2.748-9.994 4.613-15.591 3.122-9.366 31.776-23.14 54.8-34.207 27.077-13.016 55.076-26.475 71.268-42.666 12.8-12.8 38.691-52.394 52.985-74.858a6.054 6.054 0 0 1 10.329.2c20.06 33.223 74.831 93.1 117.245 137.482a8 8 0 0 0 11.568-11.055c-59.172-61.918-100.055-109.757-115.118-134.702z"/><circle cx="216" cy="168" r="8"/><path d="m224 136v-32a8 8 0 0 0 -16 0v32a8 8 0 0 0 16 0z"/><path d="m192 72v-32a8 8 0 0 0 -16 0v32a8 8 0 0 0 16 0z"/><path d="m144 56a8 8 0 0 0 -16 0v40a8 8 0 0 0 16 0z"/></g></g></svg>